<?xml version="1.0" standalone="no"?><!DOCTYPE svg PUBLIC "-//W3C//DTD SVG 1.1//EN" "http://www.w3.org/Graphics/SVG/1.1/DTD/svg11.dtd"><svg class="icon" width="200px" height="200.00px" viewBox="0 0 1024 1024" version="1.1" xmlns="http://www.w3.org/2000/svg"><path d="M1.93422222 510.74844445a510.06577778 510.06577778 0 1 0 1020.13155556 0 510.06577778 510.06577778 0 1 0-1020.13155556 0z" fill="#FBB200" /><path d="M686.3 496.7c-17.2-11-49.4-26.9-96.7-47.6-55.6-24.5-89-41-100.4-49.4-11.7-8.5-17.5-23.3-17.5-44.4 0-12.7 2.8-22.2 8.5-28.6 5.7-6.3 14.2-9.5 25.6-9.5 14.1 0 23.3 3.7 27.6 11 4.3 7.3 6.5 23 6.5 46.8v22.4h186c1.2-11.3 1.8-19.8 1.8-25.4 0-39.9-14.3-71.1-42.8-93.7-28.5-22.6-71.5-36.6-128.9-41.9v-43.1h-85.6v43.1c-62.9 5.3-110.1 19.5-141.6 42.4s-47.2 54.6-47.2 94.9c0 27.8 7.4 52.8 22.3 74.8s32.5 39.1 53 51.3c20.4 12.1 59 31.1 115.8 57 34.1 15.4 54 29.6 59.9 42.6 5.8 13 8.8 34.7 8.8 65 0 12-3.1 21.1-9.2 27.2-6.1 6.1-15.5 9.2-28.1 9.2-14.7 0-24-4.4-27.9-13.2-3.8-8.8-5.7-31.3-5.7-67.6v-33.1h-186v26.4c0 60.1 18.6 102.3 55.7 126.4 37.1 24.2 80.6 38 130.3 41.6v52.5h85.6V783c63.8-6.5 111.7-23.4 143.7-50.8 31.9-27.4 47.9-65.1 47.9-113.3 0-30.1-5.9-55.2-17.7-75.3-12-20.3-26.5-35.9-43.7-46.9z" fill="#FFFEFD" /></svg>